# 3ds Max Wavefront OBJ Exporter v0.94b - (c)2007 guruware
# File Created: 19.06.2013 21:36:02

mtllib Lenght-Corridor-Connector.mtl

#
# object Lenght_Corridor_Connector
#

v  -6.0613 0.5069 -7.1327
v  -6.0496 0.6167 -7.1179
v  -6.0496 0.6167 -7.4281
v  -6.0613 0.5069 -7.4282
v  -6.0613 -0.0181 -7.4282
v  -6.0613 -0.0181 -7.1327
v  -6.0613 0.0180 -7.1327
v  -6.0613 0.0180 -7.4282
v  -6.0613 -0.0426 -6.7805
v  -6.0744 -0.0506 -6.6884
v  -6.0744 0.0472 -6.6884
v  -6.0613 0.0391 -6.7805
v  -6.0613 -0.0181 -6.8130
v  -6.0613 0.0180 -6.8130
v  -6.0613 0.0446 -8.0714
v  -6.0744 0.0526 -8.1823
v  -6.0744 -0.0532 -8.1823
v  -6.0613 -0.0452 -8.0714
v  -6.0613 -0.0181 -8.0301
v  -6.0613 -0.0181 -7.7208
v  -6.0613 0.0180 -7.7208
v  -6.0613 0.0180 -8.0301
v  -6.0613 0.5069 -8.0301
v  -6.0613 0.6167 -8.0714
v  -6.0613 0.5069 -7.7208
v  -6.0496 0.6167 -7.7354
v  -6.0613 0.5069 -6.8130
v  -6.0613 0.6167 -6.7805
v  -6.0613 -0.4817 -6.8130
v  -6.0613 -0.5208 -6.7805
v  -6.0613 -0.4817 -7.1327
v  -6.0600 -0.5208 -7.1179
v  -6.0613 -0.4817 -7.7208
v  -6.0600 -0.5208 -7.7354
v  -6.0600 -0.5208 -7.4281
v  -6.0613 -0.4817 -7.4282
v  -6.0613 -0.4817 -8.0301
v  -6.0613 -0.5208 -8.0714
v  -6.2849 0.6167 -7.1179
v  -6.2849 0.6167 -7.4281
v  -6.2967 -0.0426 -6.7805
v  -6.3098 -0.0506 -6.6884
v  -6.3098 0.0472 -6.6884
v  -6.2967 0.0391 -6.7805
v  -6.2967 0.0446 -8.0714
v  -6.3098 0.0526 -8.1823
v  -6.3098 -0.0532 -8.1823
v  -6.2967 -0.0452 -8.0714
v  -6.2967 0.6167 -8.0714
v  -6.2849 0.6167 -7.7354
v  -6.2967 0.6167 -6.7805
v  -6.2967 -0.5208 -6.7805
v  -6.2954 -0.5208 -7.1179
v  -6.2954 -0.5208 -7.7354
v  -6.2954 -0.5208 -7.4281
v  -6.2967 -0.5208 -8.0714
v  -6.6557 0.5069 -7.7211
v  -6.6674 0.6167 -7.7359
v  -6.6674 0.6167 -7.4256
v  -6.6557 0.5069 -7.4255
v  -6.6557 -0.0181 -7.4255
v  -6.6557 -0.0181 -7.7211
v  -6.6557 0.0180 -7.7211
v  -6.6557 0.0180 -7.4255
v  -6.6557 -0.0452 -8.0718
v  -6.6426 -0.0532 -8.1827
v  -6.6426 0.0526 -8.1827
v  -6.6557 0.0446 -8.0718
v  -6.6557 -0.0181 -8.0304
v  -6.6557 0.0180 -8.0304
v  -6.6557 0.0391 -6.7819
v  -6.6426 0.0472 -6.6889
v  -6.6426 -0.0506 -6.6889
v  -6.6557 -0.0426 -6.7810
v  -6.6557 -0.0181 -6.8133
v  -6.6557 -0.0181 -7.1329
v  -6.6557 0.0180 -7.1329
v  -6.6557 0.0180 -6.8133
v  -6.6557 0.5069 -6.8133
v  -6.6557 0.6167 -6.7819
v  -6.6557 0.5069 -7.1329
v  -6.6674 0.6167 -7.1183
v  -6.6557 0.5069 -8.0304
v  -6.6557 0.6167 -8.0718
v  -6.6557 -0.4817 -8.0304
v  -6.6557 -0.5208 -8.0718
v  -6.6557 -0.4817 -7.7211
v  -6.6570 -0.5208 -7.7359
v  -6.6557 -0.4817 -7.1329
v  -6.6570 -0.5208 -7.1183
v  -6.6570 -0.5208 -7.4256
v  -6.6557 -0.4817 -7.4255
v  -6.6557 -0.4817 -6.8133
v  -6.6557 -0.5208 -6.7810
v  -6.4320 0.6167 -7.7359
v  -6.4320 0.6167 -7.4256
v  -6.4203 -0.0452 -8.0718
v  -6.4072 -0.0532 -8.1827
v  -6.4072 0.0526 -8.1827
v  -6.4203 0.0446 -8.0718
v  -6.4203 0.0391 -6.7819
v  -6.4072 0.0472 -6.6889
v  -6.4072 -0.0506 -6.6889
v  -6.4203 -0.0426 -6.7810
v  -6.4203 0.6167 -6.7819
v  -6.4320 0.6167 -7.1183
v  -6.4203 0.6167 -8.0718
v  -6.4203 -0.5208 -8.0718
v  -6.4216 -0.5208 -7.7359
v  -6.4216 -0.5208 -7.1183
v  -6.4216 -0.5208 -7.4256
v  -6.4203 -0.5208 -6.7810
# 112 vertices

vn 0.9943 -0.1063 0.0000
vn 0.9943 -0.1063 -0.0000
vn 1.0000 -0.0000 -0.0000
vn 1.0000 -0.0000 0.0000
vn 0.9901 -0.0000 0.1405
vn 0.9931 -0.0000 -0.1170
vn 0.9991 -0.0304 -0.0285
vn 0.9962 -0.0868 -0.0073
vn 0.9993 -0.0131 -0.0349
vn 0.9992 -0.0283 0.0283
vn 0.9993 -0.0103 0.0348
vn 0.9962 -0.0869 0.0071
vn 1.0000 0.0000 0.0000
vn 1.0000 0.0049 0.0037
vn 0.9994 0.0333 -0.0000
vn 0.9995 0.0321 0.0002
vn 1.0000 0.0032 0.0039
vn 0.9994 0.0333 0.0000
vn 0.9995 0.0321 -0.0002
vn 1.0000 0.0057 -0.0037
vn 1.0000 0.0041 -0.0039
vn -0.0000 1.0000 -0.0000
vn 0.0000 -0.9962 -0.0870
vn -0.0000 0.9962 -0.0870
vn 0.0000 -0.0000 1.0000
vn -0.0000 0.9974 0.0724
vn 0.0000 -0.9974 0.0724
vn -0.0000 0.0000 -1.0000
vn -0.0000 -0.0000 -1.0000
vn -0.0000 1.0000 0.0000
vn -0.0000 0.0000 1.0000
vn 0.0000 -1.0000 -0.0000
vn 0.0000 -1.0000 0.0000
vn -0.9943 -0.1063 -0.0000
vn -0.9943 -0.1063 0.0000
vn -1.0000 -0.0000 0.0000
vn -1.0000 -0.0000 -0.0000
vn -0.9931 -0.0000 -0.1170
vn -0.9902 0.0008 0.1398
vn -0.9903 0.0000 0.1391
vn -0.9901 0.0017 0.1406
vn -1.0000 0.0000 -0.0000
vn -0.9992 -0.0281 0.0284
vn -0.9962 -0.0868 0.0071
vn -0.9993 -0.0100 0.0349
vn -0.9991 -0.0305 -0.0285
vn -0.9993 -0.0132 -0.0349
vn -0.9962 -0.0868 -0.0073
vn -1.0000 0.0057 -0.0037
vn -0.9994 0.0333 0.0000
vn -0.9995 0.0321 -0.0002
vn -1.0000 0.0041 -0.0039
vn -0.9994 0.0333 -0.0000
vn -0.9995 0.0321 0.0002
vn -1.0000 0.0049 0.0037
vn -1.0000 0.0032 0.0039
vn -1.0000 0.0000 0.0000
vn 0.0000 1.0000 0.0000
vn -0.0000 -0.9974 0.0724
vn 0.0000 0.9974 0.0724
vn 0.0000 0.0000 -1.0000
vn 0.0000 0.9963 -0.0862
vn -0.0000 -0.9962 -0.0870
vn 0.0000 1.0000 -0.0000
vn -0.0000 -1.0000 -0.0000
vn -0.0113 0.0000 0.9999
vn -0.0113 -0.0000 0.9999
vn 0.0007 0.9962 -0.0865
vn 0.0010 0.9962 -0.0869
vn 0.0007 0.9962 -0.0866
vn 0.0004 0.9963 -0.0862
vn -0.0045 0.0000 1.0000
vn 0.0003 -0.9962 -0.0870
vn 0.0004 -0.9962 -0.0870
vn 0.0003 -0.9962 -0.0871
vn -0.0035 0.0000 1.0000
vn -0.0035 -0.0000 1.0000
vn -0.0000 -1.0000 0.0000
vn 0.0035 -0.0000 -1.0000
vn 0.0035 0.0000 -1.0000
vn -0.0003 -0.9974 0.0724
vn -0.0003 -0.9974 0.0723
vn 0.0045 0.0000 -1.0000
vn 0.0045 -0.0000 -1.0000
vn -0.0003 0.9974 0.0724
vn -0.0003 0.9974 0.0723
vn 0.0004 -0.0000 -1.0000
vn 0.0004 0.0000 -1.0000
vn -0.0004 0.0000 1.0000
vn -0.0004 -0.0000 1.0000
# 90 vertex normals

vt 0.1156 0.3297 0.0000
vt 0.1121 0.3036 0.0000
vt 0.1858 0.3036 0.0000
vt 0.1858 0.3297 0.0000
vt 0.1858 0.4544 0.0000
vt 0.1156 0.4544 0.0000
vt 0.1156 0.4458 0.0000
vt 0.1858 0.4458 0.0000
vt 0.0319 0.4602 0.0000
vt 0.0100 0.4621 0.0000
vt 0.0100 0.4389 0.0000
vt 0.0319 0.4408 0.0000
vt 0.0396 0.4544 0.0000
vt 0.0396 0.4458 0.0000
vt 0.3386 0.4395 0.0000
vt 0.3650 0.4376 0.0000
vt 0.3650 0.4628 0.0000
vt 0.3386 0.4609 0.0000
vt 0.3288 0.4544 0.0000
vt 0.2553 0.4544 0.0000
vt 0.2553 0.4458 0.0000
vt 0.3288 0.4458 0.0000
vt 0.3288 0.3297 0.0000
vt 0.3386 0.3036 0.0000
vt 0.2553 0.3297 0.0000
vt 0.2588 0.3036 0.0000
vt 0.0396 0.3297 0.0000
vt 0.0319 0.3036 0.0000
vt 0.0396 0.5646 0.0000
vt 0.0319 0.5739 0.0000
vt 0.1156 0.5646 0.0000
vt 0.1121 0.5739 0.0000
vt 0.2553 0.5646 0.0000
vt 0.2588 0.5739 0.0000
vt 0.1858 0.5739 0.0000
vt 0.1858 0.5646 0.0000
vt 0.3288 0.5646 0.0000
vt 0.3386 0.5739 0.0000
vt 0.5412 0.0100 0.0000
vt 0.6149 0.0100 0.0000
vt 0.6149 0.0659 0.0000
vt 0.5412 0.0659 0.0000
vt 0.1870 0.1980 0.0000
vt 0.1839 0.1761 0.0000
vt 0.2398 0.1761 0.0000
vt 0.2429 0.1980 0.0000
vt 0.3251 0.2061 0.0000
vt 0.3220 0.2280 0.0000
vt 0.2661 0.2280 0.0000
vt 0.2692 0.2061 0.0000
vt 0.5232 0.1800 0.0000
vt 0.5232 0.2033 0.0000
vt 0.4673 0.2033 0.0000
vt 0.4673 0.1800 0.0000
vt 0.3147 0.5281 0.0000
vt 0.3178 0.5544 0.0000
vt 0.2619 0.5544 0.0000
vt 0.2588 0.5281 0.0000
vt 0.1766 0.5202 0.0000
vt 0.1797 0.4939 0.0000
vt 0.2356 0.4939 0.0000
vt 0.2325 0.5202 0.0000
vt 0.1901 0.2609 0.0000
vt 0.1901 0.2357 0.0000
vt 0.2460 0.2357 0.0000
vt 0.2460 0.2609 0.0000
vt 0.3882 0.7684 0.0000
vt 0.3882 0.6325 0.0000
vt 0.4441 0.6325 0.0000
vt 0.4441 0.7684 0.0000
vt 0.3883 0.0128 0.0000
vt 0.4681 0.0100 0.0000
vt 0.4681 0.0659 0.0000
vt 0.3883 0.0687 0.0000
vt 0.6951 0.0128 0.0000
vt 0.6951 0.0687 0.0000
vt 0.8595 0.0100 0.0000
vt 0.8595 0.1473 0.0000
vt 0.8036 0.1473 0.0000
vt 0.8036 0.0100 0.0000
vt 0.6939 0.6325 0.0000
vt 0.6939 0.7461 0.0000
vt 0.6380 0.7461 0.0000
vt 0.6380 0.6325 0.0000
vt 0.3169 0.7387 0.0000
vt 0.2367 0.7390 0.0000
vt 0.2367 0.6830 0.0000
vt 0.3169 0.6827 0.0000
vt 0.1630 0.7390 0.0000
vt 0.0899 0.7390 0.0000
vt 0.0899 0.6830 0.0000
vt 0.1630 0.6830 0.0000
vt 0.0101 0.7387 0.0000
vt 0.0101 0.6827 0.0000
vt 0.5527 0.8824 0.0000
vt 0.5527 0.7693 0.0000
vt 0.6086 0.7693 0.0000
vt 0.6086 0.8824 0.0000
vt 0.1197 0.0361 0.0000
vt 0.1162 0.0100 0.0000
vt 0.1899 0.0100 0.0000
vt 0.1899 0.0361 0.0000
vt 0.1899 0.1609 0.0000
vt 0.1197 0.1609 0.0000
vt 0.1197 0.1523 0.0000
vt 0.1899 0.1523 0.0000
vt 0.0364 0.1673 0.0000
vt 0.0100 0.1692 0.0000
vt 0.0100 0.1441 0.0000
vt 0.0364 0.1460 0.0000
vt 0.0462 0.1609 0.0000
vt 0.0462 0.1523 0.0000
vt 0.3429 0.1473 0.0000
vt 0.3650 0.1454 0.0000
vt 0.3650 0.1686 0.0000
vt 0.3431 0.1667 0.0000
vt 0.3354 0.1609 0.0000
vt 0.2595 0.1609 0.0000
vt 0.2595 0.1523 0.0000
vt 0.3354 0.1523 0.0000
vt 0.3354 0.0361 0.0000
vt 0.3429 0.0100 0.0000
vt 0.2595 0.0361 0.0000
vt 0.2629 0.0100 0.0000
vt 0.0462 0.0361 0.0000
vt 0.0364 0.0100 0.0000
vt 0.0462 0.2710 0.0000
vt 0.0364 0.2803 0.0000
vt 0.1197 0.2710 0.0000
vt 0.1162 0.2803 0.0000
vt 0.2595 0.2710 0.0000
vt 0.2629 0.2803 0.0000
vt 0.1899 0.2803 0.0000
vt 0.1899 0.2710 0.0000
vt 0.3354 0.2710 0.0000
vt 0.3431 0.2803 0.0000
vt 0.5418 0.1568 0.0000
vt 0.4680 0.1568 0.0000
vt 0.4680 0.1009 0.0000
vt 0.5418 0.1009 0.0000
vt 0.3147 0.4938 0.0000
vt 0.3178 0.5201 0.0000
vt 0.2619 0.5201 0.0000
vt 0.2588 0.4938 0.0000
vt 0.1766 0.5543 0.0000
vt 0.1797 0.5280 0.0000
vt 0.2356 0.5280 0.0000
vt 0.2325 0.5543 0.0000
vt 0.3251 0.2357 0.0000
vt 0.3251 0.2609 0.0000
vt 0.2692 0.2609 0.0000
vt 0.2692 0.2357 0.0000
vt 0.1870 0.2279 0.0000
vt 0.1839 0.2058 0.0000
vt 0.2398 0.2058 0.0000
vt 0.2429 0.2279 0.0000
vt 0.3251 0.1760 0.0000
vt 0.3220 0.1979 0.0000
vt 0.2661 0.1979 0.0000
vt 0.2692 0.1760 0.0000
vt 0.3882 0.2033 0.0000
vt 0.3882 0.1800 0.0000
vt 0.4441 0.1800 0.0000
vt 0.4441 0.2033 0.0000
vt 0.7183 0.1473 0.0000
vt 0.7183 0.0100 0.0000
vt 0.7742 0.0100 0.0000
vt 0.7742 0.1473 0.0000
vt 0.6947 0.1540 0.0000
vt 0.6148 0.1568 0.0000
vt 0.6148 0.1009 0.0000
vt 0.6947 0.0981 0.0000
vt 0.3882 0.1540 0.0000
vt 0.3882 0.0981 0.0000
vt 0.5295 0.6325 0.0000
vt 0.5295 0.7684 0.0000
vt 0.4735 0.7684 0.0000
vt 0.4735 0.6325 0.0000
vt 0.6939 0.7693 0.0000
vt 0.6939 0.8824 0.0000
vt 0.6380 0.8824 0.0000
vt 0.6380 0.7693 0.0000
vt 0.0100 0.5974 0.0000
vt 0.0898 0.5971 0.0000
vt 0.0898 0.6530 0.0000
vt 0.0100 0.6533 0.0000
vt 0.1636 0.5971 0.0000
vt 0.2366 0.5971 0.0000
vt 0.2366 0.6530 0.0000
vt 0.1636 0.6530 0.0000
vt 0.3168 0.5974 0.0000
vt 0.3168 0.6533 0.0000
vt 0.5527 0.7461 0.0000
vt 0.5527 0.6325 0.0000
vt 0.6086 0.6325 0.0000
vt 0.6086 0.7461 0.0000
vt 0.7007 0.5842 0.0000
vt 0.7007 0.4680 0.0000
vt 0.8420 0.4680 0.0000
vt 0.8420 0.5842 0.0000
vt 0.6775 0.6093 0.0000
vt 0.6015 0.6093 0.0000
vt 0.6015 0.4680 0.0000
vt 0.6774 0.4680 0.0000
vt 0.5313 0.6093 0.0000
vt 0.5319 0.4680 0.0000
vt 0.4618 0.6093 0.0000
vt 0.4617 0.4680 0.0000
vt 0.3883 0.6093 0.0000
vt 0.3882 0.4680 0.0000
vt 0.5295 0.7917 0.0000
vt 0.5295 0.9078 0.0000
vt 0.3882 0.9078 0.0000
vt 0.3882 0.7917 0.0000
vt 0.0101 0.7622 0.0000
vt 0.0836 0.7622 0.0000
vt 0.0835 0.9034 0.0000
vt 0.0100 0.9034 0.0000
vt 0.1531 0.7622 0.0000
vt 0.1537 0.9034 0.0000
vt 0.2233 0.7622 0.0000
vt 0.2233 0.9034 0.0000
vt 0.2993 0.7622 0.0000
vt 0.2992 0.9034 0.0000
vt 0.7171 0.8760 0.0000
vt 0.7171 0.7658 0.0000
vt 0.8584 0.7658 0.0000
vt 0.8584 0.8760 0.0000
vt 0.9900 0.4448 0.0000
vt 0.9140 0.4448 0.0000
vt 0.9140 0.3036 0.0000
vt 0.9899 0.3036 0.0000
vt 0.8438 0.4448 0.0000
vt 0.8444 0.3036 0.0000
vt 0.7743 0.4448 0.0000
vt 0.7742 0.3036 0.0000
vt 0.7008 0.4448 0.0000
vt 0.7007 0.3036 0.0000
vt 0.8584 0.6325 0.0000
vt 0.8584 0.7426 0.0000
vt 0.7171 0.7426 0.0000
vt 0.7171 0.6325 0.0000
vt 0.3883 0.3036 0.0000
vt 0.4618 0.3036 0.0000
vt 0.4617 0.4448 0.0000
vt 0.3882 0.4448 0.0000
vt 0.5313 0.3036 0.0000
vt 0.5319 0.4448 0.0000
vt 0.6015 0.3036 0.0000
vt 0.6015 0.4448 0.0000
vt 0.6775 0.3036 0.0000
vt 0.6774 0.4448 0.0000
# 252 texture coords

g Lenght_Corridor_Connector
usemtl Window_frames
s 4
f -109/-249/-89 -110/-250/-89 -111/-251/-90 -112/-252/-90 
s 2
f -105/-245/-88 -106/-246/-87 -107/-247/-87 -108/-248/-88 
s 1
f -101/-241/-86 -102/-242/-86 -103/-243/-86 -104/-244/-86 
s 8
f -106/-246/-87 -99/-239/-87 -100/-240/-87 -107/-247/-87 
s 1
f -95/-235/-85 -96/-236/-85 -97/-237/-85 -98/-238/-85 
s 8
f -91/-231/-87 -92/-232/-87 -93/-233/-87 -94/-234/-87 
s 16
f -95/-235/-87 -98/-238/-87 -91/-231/-87 -94/-234/-87 
f -101/-241/-87 -104/-244/-88 -100/-240/-88 -99/-239/-87 
s 32
f -91/-231/-87 -98/-238/-87 -89/-229/-87 -90/-230/-87 
s 64
f -89/-229/-82 -87/-227/-83 -88/-228/-90 -90/-230/-84 
s 32
f -112/-252/-90 -111/-251/-79 -85/-225/-80 -86/-226/-81 
s 64
f -85/-225/-87 -101/-241/-87 -99/-239/-87 -86/-226/-87 
s 32
f -100/-240/-78 -104/-244/-78 -83/-223/-78 -84/-224/-78 
s 64
f -83/-223/-74 -81/-221/-75 -82/-222/-76 -84/-224/-77 
f -77/-217/-76 -78/-218/-76 -79/-219/-72 -80/-220/-73 
f -80/-220/-73 -79/-219/-72 -75/-215/-70 -76/-216/-71 
s 32
f -75/-215/-87 -95/-235/-87 -94/-234/-87 -76/-216/-87 
s 4
f -87/-227/-90 -110/-250/-89 -109/-249/-89 -88/-228/-89 
s 2
f -92/-232/-88 -105/-245/-88 -108/-248/-88 -93/-233/-88 
s 64
f -81/-221/-75 -78/-218/-76 -77/-217/-76 -82/-222/-76 
usemtl Main_tiles_length_1
s off
f -73/-211/-69 -74/-212/-69 -111/-213/-69 -110/-214/-69 
f -71/-207/-68 -72/-208/-68 -104/-209/-68 -103/-210/-68 
f -69/-203/-67 -70/-204/-67 -102/-205/-67 -101/-206/-67 
f -70/-199/-66 -71/-200/-66 -103/-201/-66 -102/-202/-66 
f -67/-195/-65 -68/-196/-65 -98/-197/-65 -97/-198/-65 
f -65/-191/-64 -66/-192/-64 -96/-193/-64 -95/-194/-64 
f -66/-187/-63 -67/-188/-63 -97/-189/-63 -96/-190/-63 
f -68/-183/-62 -64/-184/-62 -89/-185/-62 -98/-186/-62 
f -64/-179/-61 -63/-180/-61 -87/-181/-61 -89/-182/-61 
f -74/-212/-69 -62/-177/-69 -85/-178/-69 -111/-213/-69 
f -62/-173/-60 -69/-174/-60 -101/-175/-60 -85/-176/-60 
f -72/-169/-60 -61/-170/-60 -83/-171/-60 -104/-172/-60 
f -61/-165/-59 -60/-166/-59 -81/-167/-59 -83/-168/-59 
f -58/-161/-58 -59/-162/-58 -79/-163/-58 -78/-164/-58 
f -59/-162/-58 -57/-159/-58 -75/-160/-58 -79/-163/-58 
f -57/-155/-62 -65/-156/-62 -95/-157/-62 -75/-158/-62 
f -63/-180/-69 -73/-211/-69 -110/-214/-69 -87/-181/-69 
f -60/-166/-59 -58/-161/-59 -78/-164/-59 -81/-167/-59 
usemtl Window_frames
s 4
f -53/-151/-56 -54/-152/-56 -55/-153/-57 -56/-154/-57 
s 2
f -49/-147/-55 -50/-148/-54 -51/-149/-54 -52/-150/-55 
s 1
f -45/-143/-53 -46/-144/-53 -47/-145/-53 -48/-146/-53 
s 8
f -50/-148/-54 -43/-141/-54 -44/-142/-54 -51/-149/-54 
s 1
f -39/-137/-50 -40/-138/-52 -41/-139/-51 -42/-140/-52 
s 8
f -35/-133/-49 -36/-134/-49 -37/-135/-49 -38/-136/-49 
s 16
f -39/-137/-49 -42/-140/-49 -35/-133/-49 -38/-136/-49 
f -45/-143/-54 -48/-146/-55 -44/-142/-55 -43/-141/-54 
s 32
f -35/-133/-49 -42/-140/-49 -33/-131/-49 -34/-132/-49 
s 64
f -33/-131/-46 -31/-129/-47 -32/-130/-57 -34/-132/-48 
s 32
f -56/-154/-57 -55/-153/-43 -29/-127/-44 -30/-128/-45 
s 64
f -29/-127/-49 -45/-143/-49 -43/-141/-49 -30/-128/-49 
s 32
f -44/-142/-49 -48/-146/-49 -27/-125/-49 -28/-126/-49 
s 64
f -27/-125/-39 -25/-123/-40 -26/-124/-41 -28/-126/-42 
f -21/-119/-41 -22/-120/-41 -23/-121/-37 -24/-122/-38 
f -24/-122/-38 -23/-121/-37 -19/-117/-35 -20/-118/-36 
s 32
f -19/-117/-49 -39/-137/-49 -38/-136/-49 -20/-118/-49 
s 4
f -31/-129/-57 -54/-152/-56 -53/-151/-56 -32/-130/-56 
s 2
f -36/-134/-34 -49/-147/-55 -52/-150/-55 -37/-135/-55 
s 64
f -25/-123/-40 -22/-120/-41 -21/-119/-41 -26/-124/-41 
usemtl Main_tiles_length_1
s off
f -17/-113/-33 -18/-114/-33 -55/-115/-33 -54/-116/-33 
f -15/-109/-32 -16/-110/-32 -48/-111/-32 -47/-112/-32 
f -13/-105/-31 -14/-106/-31 -46/-107/-31 -45/-108/-31 
f -14/-101/-30 -15/-102/-30 -47/-103/-30 -46/-104/-30 
f -11/-97/-29 -12/-98/-29 -42/-99/-29 -41/-100/-29 
f -9/-93/-28 -10/-94/-28 -40/-95/-28 -39/-96/-28 
f -10/-89/-60 -11/-90/-60 -41/-91/-60 -40/-92/-60 
f -12/-85/-66 -8/-86/-66 -33/-87/-66 -42/-88/-66 
f -8/-81/-27 -7/-82/-27 -31/-83/-27 -33/-84/-27 
f -18/-114/-33 -6/-79/-33 -29/-80/-33 -55/-115/-33 
f -6/-75/-63 -13/-76/-63 -45/-77/-63 -29/-78/-63 
f -16/-71/-63 -5/-72/-63 -27/-73/-63 -48/-74/-63 
f -5/-67/-26 -4/-68/-26 -25/-69/-26 -27/-70/-26 
f -2/-63/-26 -3/-64/-26 -23/-65/-26 -22/-66/-26 
f -3/-64/-26 -1/-61/-26 -19/-62/-26 -23/-65/-26 
f -1/-57/-66 -9/-58/-66 -39/-59/-66 -19/-60/-66 
f -7/-82/-33 -17/-113/-33 -54/-116/-33 -31/-83/-33 
f -4/-68/-26 -2/-63/-26 -22/-66/-26 -25/-69/-26 
s 1
f -12/-85/-24 -69/-174/-24 -62/-173/-25 -8/-86/-25 
s 2
f -11/-97/-20 -70/-204/-21 -69/-203/-22 -12/-98/-23 
s 4
f -10/-89/-19 -71/-200/-19 -70/-199/-19 -11/-90/-19 
s 2
f -9/-93/-16 -72/-208/-17 -71/-207/-17 -10/-94/-18 
s 4
f -1/-57/-14 -61/-170/-14 -72/-169/-15 -9/-58/-15 
s 2
f -3/-64/-59 -60/-166/-59 -61/-165/-26 -1/-61/-26 
f -58/-161/-59 -60/-166/-59 -3/-64/-59 -2/-63/-59 
f -59/-162/-58 -58/-161/-59 -2/-63/-59 -4/-68/-58 
f -5/-67/-26 -57/-159/-13 -59/-162/-58 -4/-68/-58 
s 4
f -16/-71/-11 -65/-156/-11 -57/-155/-12 -5/-72/-12 
s 2
f -15/-109/-9 -66/-192/-10 -65/-191/-10 -16/-110/-10 
s 4
f -14/-101/-8 -67/-188/-8 -66/-187/-7 -15/-102/-8 
s 2
f -13/-105/-5 -68/-196/-6 -67/-195/-6 -14/-106/-6 
s 4
f -6/-75/-11 -64/-184/-11 -68/-183/-12 -13/-76/-12 
s 2
f -18/-114/-61 -63/-180/-61 -64/-179/-33 -6/-79/-33 
f -17/-113/-69 -73/-211/-69 -63/-180/-61 -18/-114/-61 
f -7/-82/-69 -74/-212/-69 -73/-211/-69 -17/-113/-69 
f -8/-81/-27 -62/-177/-27 -74/-212/-69 -7/-82/-69 
usemtl Window_frames
s 1
f -35/-53/-3 -34/-54/-3 -86/-55/-4 -99/-56/-4 
s 128
f -34/-49/-26 -32/-50/-59 -112/-51/-13 -86/-52/-59 
f -32/-50/-59 -53/-47/-26 -109/-48/-13 -112/-51/-13 
f -53/-47/-26 -56/-45/-26 -88/-46/-13 -109/-48/-13 
f -56/-45/-26 -30/-43/-13 -90/-44/-13 -88/-46/-13 
s 1
f -30/-39/-1 -43/-40/-1 -91/-41/-2 -90/-42/-2 
s 128
f -43/-35/-69 -50/-36/-69 -92/-37/-61 -91/-38/-69 
f -50/-36/-69 -49/-33/-61 -105/-34/-61 -92/-37/-61 
f -49/-33/-61 -36/-31/-61 -106/-32/-69 -105/-34/-61 
f -36/-31/-61 -35/-29/-69 -99/-30/-69 -106/-32/-69 
s 1
f -20/-25/-3 -38/-26/-3 -100/-27/-4 -84/-28/-4 
s 4
f -38/-21/-58 -37/-22/-59 -107/-23/-59 -100/-24/-58 
f -37/-22/-59 -52/-19/-59 -108/-20/-59 -107/-23/-59 
f -52/-19/-59 -51/-17/-59 -93/-18/-59 -108/-20/-59 
f -51/-17/-59 -44/-15/-58 -94/-16/-58 -93/-18/-59 
s 1
f -44/-11/-1 -28/-12/-1 -76/-13/-2 -94/-14/-2 
s 4
f -28/-7/-61 -26/-8/-61 -80/-9/-61 -76/-10/-61 
f -26/-8/-61 -21/-5/-61 -77/-6/-61 -80/-9/-61 
f -21/-5/-61 -24/-3/-61 -82/-4/-61 -77/-6/-61 
f -24/-3/-61 -20/-1/-61 -84/-2/-61 -82/-4/-61 
# 114 polygons

